<svg version="1.1" id="Layer_1" xmlns="http://www.w3.org/2000/svg" xmlns:xlink="http://www.w3.org/1999/xlink" x="0px" y="0px"
	 width="100%" viewBox="0 0 500 273" enable-background="new 0 0 500 273" xml:space="preserve">
<path fill="#FFFEFF" opacity="1.000000" stroke="none" 
	d="
M366.000000,274.000000 
	C244.000015,274.000000 122.500046,274.000000 1.000049,274.000000 
	C1.000033,183.000031 1.000033,92.000076 1.000016,1.000086 
	C167.666595,1.000057 334.333191,1.000057 500.999817,1.000028 
	C500.999878,91.999916 500.999878,182.999832 500.999939,273.999878 
	C456.166656,274.000000 411.333344,274.000000 366.000000,274.000000 
M6.805318,143.500214 
	C5.134288,206.251266 58.908615,263.752045 127.402008,263.178375 
	C194.838852,262.613556 246.302887,205.914688 246.401901,143.522141 
	C246.499832,81.814331 196.529861,23.344383 126.422485,23.344280 
	C55.676384,23.344177 5.330395,82.579262 6.805318,143.500214 
M263.643066,129.013657 
	C265.906677,129.013657 268.170258,129.013657 270.882751,129.013657 
	C270.882751,116.165192 270.882751,103.981804 270.882751,91.798416 
	C272.212433,92.803513 272.669830,93.971809 273.086426,95.154488 
	C276.620453,105.187447 280.382690,115.149399 283.553101,125.296181 
	C284.724609,129.045532 286.928497,128.969406 289.875244,129.086685 
	C293.053802,129.213211 295.098206,128.696854 296.047882,125.100105 
	C297.402039,119.971443 299.373047,115.002945 301.137207,109.985954 
	C303.303558,103.825256 305.528351,97.685104 307.727905,91.536072 
	C308.123810,91.601952 308.519745,91.667824 308.915649,91.733696 
	C308.915649,104.041519 308.915649,116.349342 308.915649,128.725800 
	C312.791290,128.725800 316.034729,128.725800 319.495239,128.725800 
	C319.495239,109.550026 319.495239,90.663452 319.495239,71.832222 
	C306.440765,69.388985 305.456055,69.936172 301.439423,81.667763 
	C300.631897,84.026352 299.844177,86.391731 299.034302,88.749496 
	C296.264526,96.813011 293.488953,104.874527 290.281403,114.199036 
	C289.165100,111.432457 288.501434,109.969894 287.977081,108.459000 
	C284.108032,97.311287 280.328949,86.131630 276.341583,75.026627 
	C275.817871,73.568062 274.375092,71.514236 273.182922,71.387886 
	C268.974457,70.941841 264.689850,71.214317 260.112305,71.214317 
	C260.112305,90.107597 260.075592,108.238411 260.223114,126.367737 
	C260.230316,127.254654 261.850220,128.128448 263.643066,129.013657 
M403.971649,172.327698 
	C403.971649,174.726761 403.971649,177.125824 403.971649,179.524887 
	C402.053162,178.459854 401.112122,177.189453 400.275604,175.853561 
	C394.007080,165.843018 387.805054,155.790268 381.452850,145.833298 
	C380.550323,144.418625 379.056885,142.617065 377.651031,142.435669 
	C373.949097,141.958038 370.144745,142.274155 366.373291,142.274155 
	C366.373291,162.202209 366.373291,181.425430 366.373291,200.653534 
	C370.109436,200.653534 373.509216,200.653534 377.523529,200.653534 
	C377.523529,187.325378 377.523529,174.338669 377.523529,161.351974 
	C379.414551,162.684937 380.433350,164.159866 381.375702,165.682144 
	C388.030182,176.431564 394.615753,187.224442 401.380341,197.903976 
	C402.223663,199.235352 403.889893,200.644928 405.347626,200.862976 
	C408.389709,201.318039 411.547272,201.000717 414.760803,201.000717 
	C414.760803,181.195297 414.760803,161.977844 414.760803,142.601593 
	C411.075134,142.601593 407.692993,142.601593 403.971619,142.601593 
	C403.971619,152.429993 403.971619,161.901566 403.971649,172.327698 
M280.971527,191.814606 
	C270.898254,192.184860 265.617493,188.566101 264.311523,179.367020 
	C263.595276,174.321869 263.619598,169.001465 264.357635,163.958496 
	C265.560760,155.737915 271.032349,151.860153 279.389099,151.693024 
	C285.462128,151.571564 289.765961,154.320343 292.800293,159.131592 
	C302.681061,154.218750 303.227020,152.623138 297.219971,147.296783 
	C284.841553,136.321045 261.096741,141.176559 254.555893,156.313919 
	C250.143112,166.526260 250.625061,177.173019 254.208633,187.527710 
	C257.381805,196.696671 265.142395,201.701843 274.939056,201.930176 
	C281.715576,202.088104 286.938110,199.357727 290.829102,192.760788 
	C291.057465,196.240784 291.205170,198.491623 291.353394,200.750916 
	C295.086639,200.750916 298.352081,200.750916 301.854218,200.750916 
	C301.854218,190.102631 301.854218,179.711319 301.854218,169.064636 
	C293.517212,169.064636 285.465881,169.064636 277.188477,169.064636 
	C277.188477,172.098801 277.188477,174.830872 277.188477,178.196609 
	C281.823822,178.196609 286.197998,178.196609 290.538483,178.196609 
	C290.679138,187.013550 288.990692,189.483124 280.971527,191.814606 
M366.695251,82.774330 
	C362.532349,71.026901 362.532196,71.138466 352.030243,71.125046 
	C349.070984,71.121262 347.581970,71.923637 346.691040,74.884254 
	C344.825287,81.084358 342.522614,87.152725 340.410583,93.279060 
	C336.360901,105.025925 332.319061,116.775490 328.167206,128.834045 
	C332.303345,128.834045 335.932556,128.834045 339.589355,128.834045 
	C339.928589,128.142120 340.269196,127.574295 340.495819,126.964142 
	C341.820343,123.397911 342.135193,118.337334 344.688385,116.646584 
	C347.510773,114.777542 352.374451,115.903175 356.349976,115.880791 
	C365.974915,115.826584 365.900940,115.890556 369.406281,125.394989 
	C369.924988,126.801460 371.389374,128.623306 372.655396,128.837173 
	C375.655731,129.344025 378.799774,129.000153 382.570526,129.000153 
	C377.177277,113.317017 372.055298,98.422646 366.695251,82.774330 
M457.192322,148.647888 
	C457.192322,165.909409 457.192322,183.170929 457.192322,200.636917 
	C470.711914,200.636917 483.718781,200.636917 496.620972,200.636917 
	C496.620972,197.346893 496.620972,194.439026 496.620972,191.093948 
	C487.357788,191.093948 478.445862,191.093948 469.363037,191.093948 
	C469.363037,185.606964 469.363037,180.579132 469.363037,175.063110 
	C477.294250,175.063110 484.868134,175.063110 492.644989,175.063110 
	C492.644989,171.840073 492.644989,169.112228 492.644989,165.748535 
	C484.665649,165.748535 476.952271,165.748535 469.360168,165.748535 
	C469.360168,160.866653 469.360168,156.629318 469.360168,151.870667 
	C478.446259,151.870667 487.180298,151.870667 495.802887,151.870667 
	C495.802887,148.433350 495.802887,145.533890 495.802887,142.540039 
	C482.853058,142.540039 470.295929,142.540039 457.192566,142.540039 
	C457.192566,144.463394 457.192566,146.080612 457.192322,148.647888 
M322.585938,201.006821 
	C333.377747,201.006821 344.169556,201.006821 355.156067,201.006821 
	C355.156067,197.562439 355.156067,194.524780 355.156067,190.946594 
	C345.819275,190.946594 336.901855,190.946594 327.975830,190.946594 
	C327.975830,185.493103 327.975830,180.590881 327.975830,175.028259 
	C335.864349,175.028259 343.417603,175.028259 350.809052,175.028259 
	C350.809052,171.626862 350.809052,168.901260 350.809052,165.719849 
	C342.974548,165.719849 335.545349,165.719849 327.953613,165.719849 
	C327.953613,161.017456 327.953613,156.791641 327.953613,152.000824 
	C337.006073,152.000824 345.735962,152.000824 354.577820,152.000824 
	C354.577820,148.532013 354.577820,145.637390 354.577820,142.661560 
	C341.570709,142.661560 328.886932,142.661560 316.295166,142.661560 
	C316.295166,162.300705 316.295166,181.514069 316.295166,201.006821 
	C318.320862,201.006821 319.967072,201.006821 322.585938,201.006821 
M452.952332,119.302887 
	C445.042633,119.302887 437.132935,119.302887 428.591187,119.302887 
	C428.591187,102.824310 428.591187,87.140343 428.591187,71.474258 
	C424.508453,71.474258 421.077881,71.474258 417.484253,71.474258 
	C417.484253,90.764191 417.484253,109.756569 417.484253,128.778687 
	C429.961395,128.778687 442.047211,128.778687 455.021118,128.778687 
	C454.586426,125.474785 454.194763,122.497765 452.952332,119.302887 
M438.302368,142.225479 
	C435.719055,142.225479 433.135742,142.225479 430.513306,142.225479 
	C430.513306,162.213120 430.513306,181.409164 430.513306,200.734039 
	C434.412231,200.734039 437.981232,200.734039 441.990723,200.734039 
	C441.990723,181.881149 442.026947,163.305862 441.873260,144.732147 
	C441.866272,143.891388 440.142853,143.064835 438.302368,142.225479 
M390.996429,124.347595 
	C391.089508,125.785278 391.182587,127.222969 391.277893,128.695435 
	C395.029755,128.695435 398.429016,128.695435 401.992737,128.695435 
	C401.992737,109.537720 401.992737,90.686577 401.992737,71.523010 
	C398.338074,71.523010 394.950958,71.523010 390.996368,71.523010 
	C390.996368,88.941071 390.996368,106.158737 390.996429,124.347595 
z"/>
<path fill="#FE914E" opacity="1.000000" stroke="none" 
	d="
M6.805342,143.001511 
	C5.330395,82.579262 55.676384,23.344177 126.422485,23.344280 
	C196.529861,23.344383 246.499832,81.814331 246.401901,143.522141 
	C246.302887,205.914688 194.838852,262.613556 127.402008,263.178375 
	C58.908615,263.752045 5.134288,206.251266 6.805342,143.001511 
M132.826050,209.392258 
	C132.393692,209.364471 131.961349,209.336685 131.528992,209.308884 
	C131.831894,209.736237 132.134781,210.163589 132.718903,211.195602 
	C138.056335,218.646896 144.976044,224.089798 153.220047,228.103714 
	C159.421997,231.123398 164.981903,230.531296 169.383698,227.460556 
	C157.601974,221.752869 145.350510,215.817612 132.826050,209.392258 
M58.835186,165.097382 
	C62.321804,164.044327 65.877098,163.175140 69.282112,161.903580 
	C79.332825,158.150314 89.431778,154.486053 99.265656,150.219482 
	C101.843323,149.101135 103.526245,145.920502 105.620079,143.686966 
	C105.249458,143.326233 104.878845,142.965500 104.508232,142.604767 
	C100.974205,144.679810 97.673431,147.519424 93.861176,148.682419 
	C83.594978,151.814301 73.155685,154.423767 62.698360,156.869812 
	C54.472816,158.793839 46.175407,160.386398 42.633144,169.469864 
	C39.826107,176.667969 44.211861,191.969269 50.138504,196.975479 
	C50.138504,191.809982 50.064945,186.495926 50.157284,181.184753 
	C50.270550,174.669983 52.462555,169.148056 58.835186,165.097382 
M181.203888,161.176956 
	C184.527237,162.234116 187.835083,163.343414 191.177170,164.337540 
	C198.047150,166.381073 201.715698,170.896942 202.103043,178.093521 
	C202.405106,183.705887 202.799347,189.313293 203.152634,194.922913 
	C203.613693,195.110031 204.074738,195.297165 204.535797,195.484299 
	C206.491623,190.218613 208.958359,185.078506 210.290131,179.659454 
	C212.608215,170.227066 208.674255,163.249725 199.620377,159.949326 
	C195.905838,158.595245 192.001266,157.531967 188.092331,156.982941 
	C173.609467,154.948685 159.688217,151.557755 147.926117,142.187256 
	C147.630371,141.951645 147.027817,142.101181 145.950256,142.030609 
	C149.556885,147.660629 153.607819,151.988113 159.640884,154.058899 
	C166.548370,156.429825 173.491516,158.696930 181.203888,161.176956 
M91.940933,93.480011 
	C93.843079,98.021660 95.745224,102.563309 97.647369,107.104958 
	C98.204384,106.953857 98.761398,106.802765 99.318413,106.651665 
	C94.894432,87.969307 93.709343,70.037827 112.098831,56.015575 
	C96.733940,58.468548 87.898727,75.628250 91.940933,93.480011 
M145.613556,182.917557 
	C129.699585,177.702133 104.536537,181.507416 92.504883,191.556122 
	C114.152435,185.935257 135.822189,181.110779 157.870010,189.848328 
	C158.015747,189.274155 158.161484,188.699982 158.307220,188.125809 
	C154.332291,186.456039 150.357346,184.786255 145.613556,182.917557 
M95.046883,223.695496 
	C93.453773,224.148682 91.863091,224.610626 90.266869,225.052567 
	C88.681664,225.491455 87.090881,225.910233 85.220978,226.413620 
	C91.238998,231.141922 96.822334,231.190613 103.157188,228.133163 
	C110.794189,224.447296 117.309250,219.562759 122.763062,213.170883 
	C123.383102,212.444168 123.625122,211.394882 123.814926,210.985672 
	C114.483696,215.108536 105.128372,219.242050 95.046883,223.695496 
M147.702026,111.941666 
	C147.949295,113.644897 148.196564,115.348129 148.466080,117.204582 
	C157.259277,112.537445 164.362900,99.040657 162.499146,91.518242 
	C159.178635,97.797745 155.762955,104.257210 151.729828,111.884354 
	C148.103119,94.907364 142.452408,87.646103 134.472458,88.599663 
	C142.390472,94.084488 146.302673,101.830963 147.702026,111.941666 
M125.120346,64.743690 
	C119.552826,64.826103 119.062141,69.146805 118.610954,73.041374 
	C118.141808,77.090866 118.608238,81.255951 122.660988,83.505379 
	C123.707443,84.086205 126.089203,83.578857 127.088417,82.698433 
	C131.352463,78.941322 130.468399,68.565376 125.120346,64.743690 
M117.335327,127.069916 
	C109.362587,116.239021 109.397369,104.586525 114.277596,92.436882 
	C101.227623,105.004021 104.580566,124.635559 120.652191,132.587570 
	C120.682434,132.273941 120.852470,131.871216 120.719017,131.676147 
	C119.780182,130.303894 118.778854,128.974396 117.335327,127.069916 
M70.629845,188.013382 
	C79.558022,179.556290 90.630234,178.159103 102.207092,178.423660 
	C89.146561,172.946640 69.667320,175.917801 68.496490,189.778427 
	C69.100304,189.298904 69.612267,188.892319 70.629845,188.013382 
M154.515869,64.916885 
	C156.844086,66.992966 159.172287,69.069046 162.205276,71.773590 
	C160.231598,60.258759 145.177658,51.143459 136.329895,54.384998 
	C141.957962,57.597813 147.962372,61.025467 154.515869,64.916885 
M126.750389,50.510376 
	C128.715744,46.638718 130.251511,42.755825 127.232048,38.573254 
	C125.550697,42.181908 123.901649,45.547344 122.404999,48.979244 
	C120.689308,52.913399 122.207016,55.696594 125.513969,58.208755 
	C125.836533,55.482338 126.088219,53.355057 126.750389,50.510376 
M90.165169,192.399811 
	C90.177116,192.377151 90.189064,192.354492 90.201012,192.331848 
	C90.279465,192.389587 90.357918,192.447327 90.165169,192.399811 
z"/>
<path fill="#5876FF" opacity="1.000000" stroke="none" 
	d="
M263.181122,129.011017 
	C261.850220,128.128448 260.230316,127.254654 260.223114,126.367737 
	C260.075592,108.238411 260.112305,90.107597 260.112305,71.214317 
	C264.689850,71.214317 268.974457,70.941841 273.182922,71.387886 
	C274.375092,71.514236 275.817871,73.568062 276.341583,75.026627 
	C280.328949,86.131630 284.108032,97.311287 287.977081,108.459000 
	C288.501434,109.969894 289.165100,111.432457 290.281403,114.199036 
	C293.488953,104.874527 296.264526,96.813011 299.034302,88.749496 
	C299.844177,86.391731 300.631897,84.026352 301.439423,81.667763 
	C305.456055,69.936172 306.440765,69.388985 319.495239,71.832222 
	C319.495239,90.663452 319.495239,109.550026 319.495239,128.725800 
	C316.034729,128.725800 312.791290,128.725800 308.915649,128.725800 
	C308.915649,116.349342 308.915649,104.041519 308.915649,91.733696 
	C308.519745,91.667824 308.123810,91.601952 307.727905,91.536072 
	C305.528351,97.685104 303.303558,103.825256 301.137207,109.985954 
	C299.373047,115.002945 297.402039,119.971443 296.047882,125.100105 
	C295.098206,128.696854 293.053802,129.213211 289.875244,129.086685 
	C286.928497,128.969406 284.724609,129.045532 283.553101,125.296181 
	C280.382690,115.149399 276.620453,105.187447 273.086426,95.154488 
	C272.669830,93.971809 272.212433,92.803513 270.882751,91.798416 
	C270.882751,103.981804 270.882751,116.165192 270.882751,129.013657 
	C268.170258,129.013657 265.906677,129.013657 263.181122,129.011017 
z"/>
<path fill="#5473FF" opacity="1.000000" stroke="none" 
	d="
M403.971619,171.850418 
	C403.971619,161.901566 403.971619,152.429993 403.971619,142.601593 
	C407.692993,142.601593 411.075134,142.601593 414.760803,142.601593 
	C414.760803,161.977844 414.760803,181.195297 414.760803,201.000717 
	C411.547272,201.000717 408.389709,201.318039 405.347626,200.862976 
	C403.889893,200.644928 402.223663,199.235352 401.380341,197.903976 
	C394.615753,187.224442 388.030182,176.431564 381.375702,165.682144 
	C380.433350,164.159866 379.414551,162.684937 377.523529,161.351974 
	C377.523529,174.338669 377.523529,187.325378 377.523529,200.653534 
	C373.509216,200.653534 370.109436,200.653534 366.373291,200.653534 
	C366.373291,181.425430 366.373291,162.202209 366.373291,142.274155 
	C370.144745,142.274155 373.949097,141.958038 377.651031,142.435669 
	C379.056885,142.617065 380.550323,144.418625 381.452850,145.833298 
	C387.805054,155.790268 394.007080,165.843018 400.275604,175.853561 
	C401.112122,177.189453 402.053162,178.459854 403.971649,179.524887 
	C403.971649,177.125824 403.971649,174.726761 403.971619,171.850418 
z"/>
<path fill="#5574FF" opacity="1.000000" stroke="none" 
	d="
M281.375031,191.737045 
	C288.990692,189.483124 290.679138,187.013550 290.538483,178.196609 
	C286.197998,178.196609 281.823822,178.196609 277.188477,178.196609 
	C277.188477,174.830872 277.188477,172.098801 277.188477,169.064636 
	C285.465881,169.064636 293.517212,169.064636 301.854218,169.064636 
	C301.854218,179.711319 301.854218,190.102631 301.854218,200.750916 
	C298.352081,200.750916 295.086639,200.750916 291.353394,200.750916 
	C291.205170,198.491623 291.057465,196.240784 290.829102,192.760788 
	C286.938110,199.357727 281.715576,202.088104 274.939056,201.930176 
	C265.142395,201.701843 257.381805,196.696671 254.208633,187.527710 
	C250.625061,177.173019 250.143112,166.526260 254.555893,156.313919 
	C261.096741,141.176559 284.841553,136.321045 297.219971,147.296783 
	C303.227020,152.623138 302.681061,154.218750 292.800293,159.131592 
	C289.765961,154.320343 285.462128,151.571564 279.389099,151.693024 
	C271.032349,151.860153 265.560760,155.737915 264.357635,163.958496 
	C263.619598,169.001465 263.595276,174.321869 264.311523,179.367020 
	C265.617493,188.566101 270.898254,192.184860 281.375031,191.737045 
z"/>
<path fill="#5675FF" opacity="1.000000" stroke="none" 
	d="
M366.814270,83.151306 
	C372.055298,98.422646 377.177277,113.317017 382.570526,129.000153 
	C378.799774,129.000153 375.655731,129.344025 372.655396,128.837173 
	C371.389374,128.623306 369.924988,126.801460 369.406281,125.394989 
	C365.900940,115.890556 365.974915,115.826584 356.349976,115.880791 
	C352.374451,115.903175 347.510773,114.777542 344.688385,116.646584 
	C342.135193,118.337334 341.820343,123.397911 340.495819,126.964142 
	C340.269196,127.574295 339.928589,128.142120 339.589355,128.834045 
	C335.932556,128.834045 332.303345,128.834045 328.167206,128.834045 
	C332.319061,116.775490 336.360901,105.025925 340.410583,93.279060 
	C342.522614,87.152725 344.825287,81.084358 346.691040,74.884254 
	C347.581970,71.923637 349.070984,71.121262 352.030243,71.125046 
	C362.532196,71.138466 362.532349,71.026901 366.814270,83.151306 
M351.711853,106.069748 
	C355.313538,106.069748 358.915222,106.069748 363.091370,106.069748 
	C360.485718,98.273392 358.091766,91.110413 355.697815,83.947433 
	C352.391479,90.400681 350.335388,96.666847 348.232849,102.917389 
	C347.401215,105.389740 348.342438,106.309746 351.711853,106.069748 
z"/>
<path fill="#5775FF" opacity="1.000000" stroke="none" 
	d="
M457.192444,148.172852 
	C457.192566,146.080612 457.192566,144.463394 457.192566,142.540039 
	C470.295929,142.540039 482.853058,142.540039 495.802887,142.540039 
	C495.802887,145.533890 495.802887,148.433350 495.802887,151.870667 
	C487.180298,151.870667 478.446259,151.870667 469.360168,151.870667 
	C469.360168,156.629318 469.360168,160.866653 469.360168,165.748535 
	C476.952271,165.748535 484.665649,165.748535 492.644989,165.748535 
	C492.644989,169.112228 492.644989,171.840073 492.644989,175.063110 
	C484.868134,175.063110 477.294250,175.063110 469.363037,175.063110 
	C469.363037,180.579132 469.363037,185.606964 469.363037,191.093948 
	C478.445862,191.093948 487.357788,191.093948 496.620972,191.093948 
	C496.620972,194.439026 496.620972,197.346893 496.620972,200.636917 
	C483.718781,200.636917 470.711914,200.636917 457.192322,200.636917 
	C457.192322,183.170929 457.192322,165.909409 457.192444,148.172852 
z"/>
<path fill="#5574FF" opacity="1.000000" stroke="none" 
	d="
M322.099609,201.006821 
	C319.967072,201.006821 318.320862,201.006821 316.295166,201.006821 
	C316.295166,181.514069 316.295166,162.300705 316.295166,142.661560 
	C328.886932,142.661560 341.570709,142.661560 354.577820,142.661560 
	C354.577820,145.637390 354.577820,148.532013 354.577820,152.000824 
	C345.735962,152.000824 337.006073,152.000824 327.953613,152.000824 
	C327.953613,156.791641 327.953613,161.017456 327.953613,165.719849 
	C335.545349,165.719849 342.974548,165.719849 350.809052,165.719849 
	C350.809052,168.901260 350.809052,171.626862 350.809052,175.028259 
	C343.417603,175.028259 335.864349,175.028259 327.975830,175.028259 
	C327.975830,180.590881 327.975830,185.493103 327.975830,190.946594 
	C336.901855,190.946594 345.819275,190.946594 355.156067,190.946594 
	C355.156067,194.524780 355.156067,197.562439 355.156067,201.006821 
	C344.169556,201.006821 333.377747,201.006821 322.099609,201.006821 
z"/>
<path fill="#5B78FF" opacity="1.000000" stroke="none" 
	d="
M453.377686,119.411819 
	C454.194763,122.497765 454.586426,125.474785 455.021118,128.778687 
	C442.047211,128.778687 429.961395,128.778687 417.484253,128.778687 
	C417.484253,109.756569 417.484253,90.764191 417.484253,71.474258 
	C421.077881,71.474258 424.508453,71.474258 428.591187,71.474258 
	C428.591187,87.140343 428.591187,102.824310 428.591187,119.302887 
	C437.132935,119.302887 445.042633,119.302887 453.377686,119.411819 
z"/>
<path fill="#5876FF" opacity="1.000000" stroke="none" 
	d="
M438.760651,142.228577 
	C440.142853,143.064835 441.866272,143.891388 441.873260,144.732147 
	C442.026947,163.305862 441.990723,181.881149 441.990723,200.734039 
	C437.981232,200.734039 434.412231,200.734039 430.513306,200.734039 
	C430.513306,181.409164 430.513306,162.213120 430.513306,142.225479 
	C433.135742,142.225479 435.719055,142.225479 438.760651,142.228577 
z"/>
<path fill="#5372FF" opacity="1.000000" stroke="none" 
	d="
M390.996399,123.862000 
	C390.996368,106.158737 390.996368,88.941071 390.996368,71.523010 
	C394.950958,71.523010 398.338074,71.523010 401.992737,71.523010 
	C401.992737,90.686577 401.992737,109.537720 401.992737,128.695435 
	C398.429016,128.695435 395.029755,128.695435 391.277893,128.695435 
	C391.182587,127.222969 391.089508,125.785278 390.996399,123.862000 
z"/>
<path fill="#5772F9" opacity="1.000000" stroke="none" 
	d="
M58.503075,165.274170 
	C52.462555,169.148056 50.270550,174.669983 50.157284,181.184753 
	C50.064945,186.495926 50.138504,191.809982 50.138504,196.975479 
	C44.211861,191.969269 39.826107,176.667969 42.633144,169.469864 
	C46.175407,160.386398 54.472816,158.793839 62.698360,156.869812 
	C73.155685,154.423767 83.594978,151.814301 93.861176,148.682419 
	C97.673431,147.519424 100.974205,144.679810 104.508232,142.604767 
	C104.878845,142.965500 105.249458,143.326233 105.620079,143.686966 
	C103.526245,145.920502 101.843323,149.101135 99.265656,150.219482 
	C89.431778,154.486053 79.332825,158.150314 69.282112,161.903580 
	C65.877098,163.175140 62.321804,164.044327 58.503075,165.274170 
z"/>
<path fill="#5A72F7" opacity="1.000000" stroke="none" 
	d="
M180.811523,161.093048 
	C173.491516,158.696930 166.548370,156.429825 159.640884,154.058899 
	C153.607819,151.988113 149.556885,147.660629 145.950256,142.030609 
	C147.027817,142.101181 147.630371,141.951645 147.926117,142.187256 
	C159.688217,151.557755 173.609467,154.948685 188.092331,156.982941 
	C192.001266,157.531967 195.905838,158.595245 199.620377,159.949326 
	C208.674255,163.249725 212.608215,170.227066 210.290131,179.659454 
	C208.958359,185.078506 206.491623,190.218613 204.535797,195.484299 
	C204.074738,195.297165 203.613693,195.110031 203.152634,194.922913 
	C202.799347,189.313293 202.405106,183.705887 202.103043,178.093521 
	C201.715698,170.896942 198.047150,166.381073 191.177170,164.337540 
	C187.835083,163.343414 184.527237,162.234116 180.811523,161.093048 
z"/>
<path fill="#5A73F7" opacity="1.000000" stroke="none" 
	d="
M91.845062,93.077850 
	C87.898727,75.628250 96.733940,58.468548 112.098831,56.015575 
	C93.709343,70.037827 94.894432,87.969307 99.318413,106.651665 
	C98.761398,106.802765 98.204384,106.953857 97.647369,107.104958 
	C95.745224,102.563309 93.843079,98.021660 91.845062,93.077850 
z"/>
<path fill="#5C73F5" opacity="1.000000" stroke="none" 
	d="
M145.997986,183.017029 
	C150.357346,184.786255 154.332291,186.456039 158.307220,188.125809 
	C158.161484,188.699982 158.015747,189.274155 157.870010,189.848328 
	C135.822189,181.110779 114.152435,185.935257 92.504883,191.556122 
	C104.536537,181.507416 129.699585,177.702133 145.997986,183.017029 
z"/>
<path fill="#5B73F6" opacity="1.000000" stroke="none" 
	d="
M95.409966,223.535522 
	C105.128372,219.242050 114.483696,215.108536 123.814926,210.985672 
	C123.625122,211.394882 123.383102,212.444168 122.763062,213.170883 
	C117.309250,219.562759 110.794189,224.447296 103.157188,228.133163 
	C96.822334,231.190613 91.238998,231.141922 85.220978,226.413620 
	C87.090881,225.910233 88.681664,225.491455 90.266869,225.052567 
	C91.863091,224.610626 93.453773,224.148682 95.409966,223.535522 
z"/>
<path fill="#5B73F6" opacity="1.000000" stroke="none" 
	d="
M133.099045,209.882355 
	C145.350510,215.817612 157.601974,221.752869 169.383698,227.460556 
	C164.981903,230.531296 159.421997,231.123398 153.220047,228.103714 
	C144.976044,224.089798 138.056335,218.646896 132.751312,210.723297 
	C132.783707,210.250992 133.099045,209.882355 133.099045,209.882355 
z"/>
<path fill="#5F73F2" opacity="1.000000" stroke="none" 
	d="
M147.611679,111.533875 
	C146.302673,101.830963 142.390472,94.084488 134.472458,88.599663 
	C142.452408,87.646103 148.103119,94.907364 151.729828,111.884354 
	C155.762955,104.257210 159.178635,97.797745 162.499146,91.518242 
	C164.362900,99.040657 157.259277,112.537445 148.466080,117.204582 
	C148.196564,115.348129 147.949295,113.644897 147.611679,111.533875 
z"/>
<path fill="#5772FA" opacity="1.000000" stroke="none" 
	d="
M125.465393,64.838478 
	C130.468399,68.565376 131.352463,78.941322 127.088417,82.698433 
	C126.089203,83.578857 123.707443,84.086205 122.660988,83.505379 
	C118.608238,81.255951 118.141808,77.090866 118.610954,73.041374 
	C119.062141,69.146805 119.552826,64.826103 125.465393,64.838478 
z"/>
<path fill="#5D73F4" opacity="1.000000" stroke="none" 
	d="
M117.566406,127.350571 
	C118.778854,128.974396 119.780182,130.303894 120.719017,131.676147 
	C120.852470,131.871216 120.682434,132.273941 120.652191,132.587570 
	C104.580566,124.635559 101.227623,105.004021 114.277596,92.436882 
	C109.397369,104.586525 109.362587,116.239021 117.566406,127.350571 
z"/>
<path fill="#6274EE" opacity="1.000000" stroke="none" 
	d="
M70.377045,188.249557 
	C69.612267,188.892319 69.100304,189.298904 68.496490,189.778427 
	C69.667320,175.917801 89.146561,172.946640 102.207993,178.426620 
	C90.630234,178.159103 79.558022,179.556290 70.377045,188.249557 
z"/>
<path fill="#6074F1" opacity="1.000000" stroke="none" 
	d="
M154.241318,64.685005 
	C147.962372,61.025467 141.957962,57.597813 136.329895,54.384998 
	C145.177658,51.143459 160.231598,60.258759 162.205276,71.773590 
	C159.172287,69.069046 156.844086,66.992966 154.241318,64.685005 
z"/>
<path fill="#6575EB" opacity="1.000000" stroke="none" 
	d="
M126.545151,50.869072 
	C126.088219,53.355057 125.836533,55.482338 125.513969,58.208755 
	C122.207016,55.696594 120.689308,52.913399 122.404999,48.979244 
	C123.901649,45.547344 125.550697,42.181908 127.232048,38.573254 
	C130.251511,42.755825 128.715744,46.638718 126.545151,50.869072 
z"/>
<path fill="#5C73F5" opacity="1.000000" stroke="none" 
	d="
M90.300766,192.452438 
	C90.357918,192.447327 90.279465,192.389587 90.201004,192.331848 
	C90.189064,192.354492 90.177116,192.377151 90.300766,192.452438 
z"/>
<path fill="#5B73F6" opacity="1.000000" stroke="none" 
	d="
M132.610687,210.420975 
	C132.134781,210.163589 131.831894,209.736237 131.528992,209.308884 
	C131.961349,209.336685 132.393692,209.364471 132.962555,209.637299 
	C133.099045,209.882355 132.783707,210.250992 132.610687,210.420975 
z"/>
<path fill="#F9FAFF" opacity="1.000000" stroke="none" 
	d="
M351.249634,106.068497 
	C348.342438,106.309746 347.401215,105.389740 348.232849,102.917389 
	C350.335388,96.666847 352.391479,90.400681 355.697815,83.947433 
	C358.091766,91.110413 360.485718,98.273392 363.091370,106.069748 
	C358.915222,106.069748 355.313538,106.069748 351.249634,106.068497 
z"/>
</svg>